{
    "asset" : {
        "generator" : "Khronos glTF Blender I/O v1.6.16",
        "version" : "2.0"
    },
    "scene" : 0,
    "scenes" : [
        {
            "name" : "Scene",
            "nodes" : [
                0
            ]
        }
    ],
    "nodes" : [
        {
            "mesh" : 0,
            "name" : "Cube.030",
            "scale" : [
                1.9746896028518677,
                0.26366662979125977,
                0.9330761432647705
            ],
            "translation" : [
                0,
                0.8750634789466858,
                0
            ]
        }
    ],
    "materials" : [
        {
            "doubleSided" : true,
            "name" : "Material.001",
            "pbrMetallicRoughness" : {
                "baseColorFactor" : [
                    0.0018158955499529839,
                    0.0018158955499529839,
                    0.0018158955499529839,
                    1
                ],
                "metallicFactor" : 0,
                "roughnessFactor" : 0.5
            }
        },
        {
            "doubleSided" : true,
            "name" : "Material.005",
            "pbrMetallicRoughness" : {
                "baseColorFactor" : [
                    0.05312865972518921,
                    0.025900080800056458,
                    0.017633767798542976,
                    1
                ],
                "metallicFactor" : 0,
                "roughnessFactor" : 0.5
            }
        },
        {
            "doubleSided" : true,
            "name" : "Material.006",
            "pbrMetallicRoughness" : {
                "baseColorFactor" : [
                    0.05423378944396973,
                    0.024877704679965973,
                    0.015900226309895515,
                    1
                ],
                "metallicFactor" : 0,
                "roughnessFactor" : 0.5
            }
        },
        {
            "doubleSided" : true,
            "emissiveFactor" : [
                0.08490221202373505,
                0.814337968826294,
                0.05629796162247658
            ],
            "name" : "Material.009",
            "pbrMetallicRoughness" : {
                "baseColorFactor" : [
                    0.800000011920929,
                    0.800000011920929,
                    0.800000011920929,
                    1
                ],
                "metallicFactor" : 0,
                "roughnessFactor" : 0.5
            }
        },
        {
            "doubleSided" : true,
            "emissiveFactor" : [
                0.28242865204811096,
                0.8172946572303772,
                0.9278798699378967
            ],
            "name" : "Material.007",
            "pbrMetallicRoughness" : {
                "baseColorFactor" : [
                    0.435944139957428,
                    0.7689005136489868,
                    0.8000000715255737,
                    1
                ],
                "metallicFactor" : 0.4272727072238922,
                "roughnessFactor" : 0.5090909004211426
            }
        },
        {
            "doubleSided" : true,
            "name" : "Material.003",
            "pbrMetallicRoughness" : {
                "baseColorFactor" : [
                    0.8000000715255737,
                    0.6627843379974365,
                    0.1276174783706665,
                    1
                ],
                "metallicFactor" : 0,
                "roughnessFactor" : 0.5
            }
        },
        {
            "doubleSided" : true,
            "emissiveFactor" : [
                0.7915734648704529,
                0.028484981507062912,
                0.028484981507062912
            ],
            "name" : "Material.010",
            "pbrMetallicRoughness" : {
                "baseColorFactor" : [
                    0.800000011920929,
                    0.800000011920929,
                    0.800000011920929,
                    1
                ],
                "metallicFactor" : 0,
                "roughnessFactor" : 0.5
            }
        },
        {
            "doubleSided" : true,
            "emissiveFactor" : [
                0.057160135358572006,
                0.057160135358572006,
                0.057160135358572006
            ],
            "name" : "Material.013",
            "pbrMetallicRoughness" : {
                "baseColorFactor" : [
                    0.006269331555813551,
                    0.006269331555813551,
                    0.006269331555813551,
                    1
                ],
                "metallicFactor" : 0,
                "roughnessFactor" : 0.5
            }
        },
        {
            "doubleSided" : true,
            "emissiveFactor" : [
                0.23536063730716705,
                0.8610005378723145,
                0.3407740294933319
            ],
            "name" : "Material.012",
            "pbrMetallicRoughness" : {
                "baseColorFactor" : [
                    0.800000011920929,
                    0.800000011920929,
                    0.800000011920929,
                    1
                ],
                "metallicFactor" : 0,
                "roughnessFactor" : 0.5
            }
        }
    ],
    "meshes" : [
        {
            "name" : "Cube.030",
            "primitives" : [
                {
                    "attributes" : {
                        "POSITION" : 0,
                        "NORMAL" : 1,
                        "TEXCOORD_0" : 2
                    },
                    "indices" : 3,
                    "material" : 0
                },
                {
                    "attributes" : {
                        "POSITION" : 4,
                        "NORMAL" : 5,
                        "TEXCOORD_0" : 6
                    },
                    "indices" : 7,
                    "material" : 1
                },
                {
                    "attributes" : {
                        "POSITION" : 8,
                        "NORMAL" : 9,
                        "TEXCOORD_0" : 10
                    },
                    "indices" : 11,
                    "material" : 2
                },
                {
                    "attributes" : {
                        "POSITION" : 12,
                        "NORMAL" : 13,
                        "TEXCOORD_0" : 14
                    },
                    "indices" : 15,
                    "material" : 3
                },
                {
                    "attributes" : {
                        "POSITION" : 16,
                        "NORMAL" : 17,
                        "TEXCOORD_0" : 18
                    },
                    "indices" : 19,
                    "material" : 4
                },
                {
                    "attributes" : {
                        "POSITION" : 20,
                        "NORMAL" : 21,
                        "TEXCOORD_0" : 22
                    },
                    "indices" : 23,
                    "material" : 5
                },
                {
                    "attributes" : {
                        "POSITION" : 24,
                        "NORMAL" : 25,
                        "TEXCOORD_0" : 26
                    },
                    "indices" : 27,
                    "material" : 6
                },
                {
                    "attributes" : {
                        "POSITION" : 28,
                        "NORMAL" : 29,
                        "TEXCOORD_0" : 30
                    },
                    "indices" : 31,
                    "material" : 7
                },
                {
                    "attributes" : {
                        "POSITION" : 32,
                        "NORMAL" : 33,
                        "TEXCOORD_0" : 34
                    },
                    "indices" : 35,
                    "material" : 8
                }
            ]
        }
    ],
    "accessors" : [
        {
            "bufferView" : 0,
            "componentType" : 5126,
            "count" : 8131,
            "max" : [
                3.217167615890503,
                1.5255436897277832,
                6.241038799285889
            ],
            "min" : [
                -2.3161003589630127,
                -1.4480583667755127,
                -6.241038799285889
            ],
            "type" : "VEC3"
        },
        {
            "bufferView" : 1,
            "componentType" : 5126,
            "count" : 8131,
            "type" : "VEC3"
        },
        {
            "bufferView" : 2,
            "componentType" : 5126,
            "count" : 8131,
            "type" : "VEC2"
        },
        {
            "bufferView" : 3,
            "componentType" : 5123,
            "count" : 14856,
            "type" : "SCALAR"
        },
        {
            "bufferView" : 4,
            "componentType" : 5126,
            "count" : 1912,
            "max" : [
                2.071166753768921,
                1.419158935546875,
                3.8266191482543945
            ],
            "min" : [
                1.7533162832260132,
                -3.7060084342956543,
                -3.8266191482543945
            ],
            "type" : "VEC3"
        },
        {
            "bufferView" : 5,
            "componentType" : 5126,
            "count" : 1912,
            "type" : "VEC3"
        },
        {
            "bufferView" : 6,
            "componentType" : 5126,
            "count" : 1912,
            "type" : "VEC2"
        },
        {
            "bufferView" : 7,
            "componentType" : 5123,
            "count" : 3048,
            "type" : "SCALAR"
        },
        {
            "bufferView" : 8,
            "componentType" : 5126,
            "count" : 1888,
            "max" : [
                -0.8525813817977905,
                1.2953331470489502,
                3.823967933654785
            ],
            "min" : [
                -1.1704319715499878,
                -3.710977077484131,
                -3.823967933654785
            ],
            "type" : "VEC3"
        },
        {
            "bufferView" : 9,
            "componentType" : 5126,
            "count" : 1888,
            "type" : "VEC3"
        },
        {
            "bufferView" : 10,
            "componentType" : 5126,
            "count" : 1888,
            "type" : "VEC2"
        },
        {
            "bufferView" : 11,
            "componentType" : 5123,
            "count" : 3048,
            "type" : "SCALAR"
        },
        {
            "bufferView" : 12,
            "componentType" : 5126,
            "count" : 104,
            "max" : [
                -1.0456078052520752,
                -0.8844878077507019,
                3.8179373741149902
            ],
            "min" : [
                -1.1735281944274902,
                -1.190245270729065,
                -3.8179373741149902
            ],
            "type" : "VEC3"
        },
        {
            "bufferView" : 13,
            "componentType" : 5126,
            "count" : 104,
            "type" : "VEC3"
        },
        {
            "bufferView" : 14,
            "componentType" : 5126,
            "count" : 104,
            "type" : "VEC2"
        },
        {
            "bufferView" : 15,
            "componentType" : 5123,
            "count" : 156,
            "type" : "SCALAR"
        },
        {
            "bufferView" : 16,
            "componentType" : 5126,
            "count" : 20,
            "max" : [
                -0.9403999447822571,
                0.32149267196655273,
                0.9180153012275696
            ],
            "min" : [
                -0.961226761341095,
                -0.36854076385498047,
                -0.9180153012275696
            ],
            "type" : "VEC3"
        },
        {
            "bufferView" : 17,
            "componentType" : 5126,
            "count" : 20,
            "type" : "VEC3"
        },
        {
            "bufferView" : 18,
            "componentType" : 5126,
            "count" : 20,
            "type" : "VEC2"
        },
        {
            "bufferView" : 19,
            "componentType" : 5123,
            "count" : 36,
            "type" : "SCALAR"
        },
        {
            "bufferView" : 20,
            "componentType" : 5126,
            "count" : 16,
            "max" : [
                -0.5758910179138184,
                0.44214174151420593,
                2.4804770946502686
            ],
            "min" : [
                -0.8546212911605835,
                -0.8283166289329529,
                -2.4804770946502686
            ],
            "type" : "VEC3"
        },
        {
            "bufferView" : 21,
            "componentType" : 5126,
            "count" : 16,
            "type" : "VEC3"
        },
        {
            "bufferView" : 22,
            "componentType" : 5126,
            "count" : 16,
            "type" : "VEC2"
        },
        {
            "bufferView" : 23,
            "componentType" : 5123,
            "count" : 24,
            "type" : "SCALAR"
        },
        {
            "bufferView" : 24,
            "componentType" : 5126,
            "count" : 88,
            "max" : [
                1.9721391201019287,
                -0.760662317276001,
                3.8266191482543945
            ],
            "min" : [
                1.752395749092102,
                -1.0664198398590088,
                -3.8266191482543945
            ],
            "type" : "VEC3"
        },
        {
            "bufferView" : 25,
            "componentType" : 5126,
            "count" : 88,
            "type" : "VEC3"
        },
        {
            "bufferView" : 26,
            "componentType" : 5126,
            "count" : 88,
            "type" : "VEC2"
        },
        {
            "bufferView" : 27,
            "componentType" : 5123,
            "count" : 132,
            "type" : "SCALAR"
        },
        {
            "bufferView" : 28,
            "componentType" : 5126,
            "count" : 640,
            "max" : [
                0.2676864266395569,
                1.0402451753616333,
                0.14547692239284515
            ],
            "min" : [
                0.13020551204681396,
                0.010603725910186768,
                -0.14547692239284515
            ],
            "type" : "VEC3"
        },
        {
            "bufferView" : 29,
            "componentType" : 5126,
            "count" : 640,
            "type" : "VEC3"
        },
        {
            "bufferView" : 30,
            "componentType" : 5126,
            "count" : 640,
            "type" : "VEC2"
        },
        {
            "bufferView" : 31,
            "componentType" : 5123,
            "count" : 1128,
            "type" : "SCALAR"
        },
        {
            "bufferView" : 32,
            "componentType" : 5126,
            "count" : 2560,
            "max" : [
                0.45239850878715515,
                1.019115686416626,
                0.13440316915512085
            ],
            "min" : [
                0.31600797176361084,
                0.010603725910186768,
                -0.13440316915512085
            ],
            "type" : "VEC3"
        },
        {
            "bufferView" : 33,
            "componentType" : 5126,
            "count" : 2560,
            "type" : "VEC3"
        },
        {
            "bufferView" : 34,
            "componentType" : 5126,
            "count" : 2560,
            "type" : "VEC2"
        },
        {
            "bufferView" : 35,
            "componentType" : 5123,
            "count" : 4344,
            "type" : "SCALAR"
        }
    ],
    "bufferViews" : [
        {
            "buffer" : 0,
            "byteLength" : 97572,
            "byteOffset" : 0
        },
        {
            "buffer" : 0,
            "byteLength" : 97572,
            "byteOffset" : 97572
        },
        {
            "buffer" : 0,
            "byteLength" : 65048,
            "byteOffset" : 195144
        },
        {
            "buffer" : 0,
            "byteLength" : 29712,
            "byteOffset" : 260192
        },
        {
            "buffer" : 0,
            "byteLength" : 22944,
            "byteOffset" : 289904
        },
        {
            "buffer" : 0,
            "byteLength" : 22944,
            "byteOffset" : 312848
        },
        {
            "buffer" : 0,
            "byteLength" : 15296,
            "byteOffset" : 335792
        },
        {
            "buffer" : 0,
            "byteLength" : 6096,
            "byteOffset" : 351088
        },
        {
            "buffer" : 0,
            "byteLength" : 22656,
            "byteOffset" : 357184
        },
        {
            "buffer" : 0,
            "byteLength" : 22656,
            "byteOffset" : 379840
        },
        {
            "buffer" : 0,
            "byteLength" : 15104,
            "byteOffset" : 402496
        },
        {
            "buffer" : 0,
            "byteLength" : 6096,
            "byteOffset" : 417600
        },
        {
            "buffer" : 0,
            "byteLength" : 1248,
            "byteOffset" : 423696
        },
        {
            "buffer" : 0,
            "byteLength" : 1248,
            "byteOffset" : 424944
        },
        {
            "buffer" : 0,
            "byteLength" : 832,
            "byteOffset" : 426192
        },
        {
            "buffer" : 0,
            "byteLength" : 312,
            "byteOffset" : 427024
        },
        {
            "buffer" : 0,
            "byteLength" : 240,
            "byteOffset" : 427336
        },
        {
            "buffer" : 0,
            "byteLength" : 240,
            "byteOffset" : 427576
        },
        {
            "buffer" : 0,
            "byteLength" : 160,
            "byteOffset" : 427816
        },
        {
            "buffer" : 0,
            "byteLength" : 72,
            "byteOffset" : 427976
        },
        {
            "buffer" : 0,
            "byteLength" : 192,
            "byteOffset" : 428048
        },
        {
            "buffer" : 0,
            "byteLength" : 192,
            "byteOffset" : 428240
        },
        {
            "buffer" : 0,
            "byteLength" : 128,
            "byteOffset" : 428432
        },
        {
            "buffer" : 0,
            "byteLength" : 48,
            "byteOffset" : 428560
        },
        {
            "buffer" : 0,
            "byteLength" : 1056,
            "byteOffset" : 428608
        },
        {
            "buffer" : 0,
            "byteLength" : 1056,
            "byteOffset" : 429664
        },
        {
            "buffer" : 0,
            "byteLength" : 704,
            "byteOffset" : 430720
        },
        {
            "buffer" : 0,
            "byteLength" : 264,
            "byteOffset" : 431424
        },
        {
            "buffer" : 0,
            "byteLength" : 7680,
            "byteOffset" : 431688
        },
        {
            "buffer" : 0,
            "byteLength" : 7680,
            "byteOffset" : 439368
        },
        {
            "buffer" : 0,
            "byteLength" : 5120,
            "byteOffset" : 447048
        },
        {
            "buffer" : 0,
            "byteLength" : 2256,
            "byteOffset" : 452168
        },
        {
            "buffer" : 0,
            "byteLength" : 30720,
            "byteOffset" : 454424
        },
        {
            "buffer" : 0,
            "byteLength" : 30720,
            "byteOffset" : 485144
        },
        {
            "buffer" : 0,
            "byteLength" : 20480,
            "byteOffset" : 515864
        },
        {
            "buffer" : 0,
            "byteLength" : 8688,
            "byteOffset" : 536344
        }
    ],
    "buffers" : [
        {
            "byteLength" : 545032,
            "uri" : "data:application/octet-stream;base64,"
        }
    ]
}
